<?xml version="1.0" encoding="utf-8"?>
<!-- Generator: Adobe Illustrator 15.0.0, SVG Export Plug-In . SVG Version: 6.00 Build 0)  -->
<!DOCTYPE svg PUBLIC "-//W3C//DTD SVG 1.1//EN" "http://www.w3.org/Graphics/SVG/1.1/DTD/svg11.dtd">
<svg version="1.1" id="Layer_1" xmlns="http://www.w3.org/2000/svg" xmlns:xlink="http://www.w3.org/1999/xlink" x="0px" y="0px"
	 width="393.612px" height="87.63px" viewBox="0 0 393.612 87.63" enable-background="new 0 0 393.612 87.63" xml:space="preserve">
<g>
	<path fill="#13D6BE" d="M45.25,22.211H27.129v-1.339c0-2.68,0.564-7.827-3.596-7.827c-3.525,0-3.808,3.314-3.808,5.923v26.865
		c0,0.635,0.282,3.949,3.808,3.949c4.16,0,3.596-5.148,3.596-7.898v-2.68h-3.244V27.429H45.25v28.839
		c-5.923,5.359-14.878,6.557-22.563,6.557c-5.429,0-11.634-0.422-15.936-4.018c-5.57-4.725-5.852-10.225-5.852-16.853V18.968
		c0-5.358,0.634-10.576,5.006-14.243C10.277,0.987,16.271,0,21.841,0c8.25,0,16.782,1.904,23.41,6.981V22.211z"/>
	<path fill="#13D6BE" d="M49.38,33.353c-0.282-12.128,3.808-16.993,19.391-17.064c16.358-0.07,20.377,5.359,20.096,16.218v10.506
		H66.021v4.09c-0.07,2.186,0.211,5.076,3.103,5.076s3.103-2.609,3.103-4.865v-1.621h16.641v11.141
		c-3.667,3.172-10.506,5.217-17.346,5.711c-6.769,0.494-13.609-0.635-17.275-3.385c-4.654-3.455-4.865-8.391-4.865-13.75V33.353z
		 M72.508,31.166c0-1.763-0.282-4.513-3.243-4.513s-3.244,2.75-3.244,4.513v1.692h6.487V31.166z"/>
	<path fill="#13D6BE" d="M110.355,19.955c4.513-3.032,8.461-3.808,11.987-3.667c3.455,0.142,6.487,1.27,8.179,2.962
		c3.032,2.891,3.384,6.135,3.384,9.942v16.64c0,2.186-0.211,4.654,1.975,5.852v9.943h-17.698c-0.987-4.514-0.917-9.238-0.917-13.82
		V34.833c0-0.282,0.212-2.327-0.493-3.949c-1.128-1.691-2.961-2.961-5.711-1.691v16.64c0,2.186-0.212,4.654,2.044,5.852v9.943
		h-20.73v-9.943c2.186-1.268,2.045-3.312,2.045-5.57V32.647c0-2.397,0.07-3.949-2.045-5.5v-9.942h17.98V19.955z"/>
	<path fill="#13D6BE" d="M139.248,33.353c-0.282-12.128,3.808-16.993,19.391-17.064c16.358-0.07,20.377,5.359,20.096,16.218v10.506
		h-22.846v4.09c-0.07,2.186,0.211,5.076,3.103,5.076s3.103-2.609,3.103-4.865v-1.621h16.641v11.141
		c-3.667,3.172-10.506,5.217-17.346,5.711c-6.769,0.494-13.609-0.635-17.275-3.385c-4.654-3.455-4.865-8.391-4.865-13.75V33.353z
		 M162.375,31.166c0-1.763-0.282-4.513-3.243-4.513s-3.244,2.75-3.244,4.513v1.692h6.487V31.166z"/>
	<path fill="#13D6BE" d="M200.251,20.73c1.762-3.032,3.596-4.513,7.191-4.513c0.635,0,1.34,0.07,1.975,0.212v15.159h-1.34
		c-5.781,0-7.051,3.244-7.051,8.462v4.301c0,1.411,0,3.385,0.281,4.795c0.283,1.48,0.705,1.832,2.115,2.537v9.943h-21.082V51.543
		c2.256-1.48,2.045-3.525,2.045-5.852V33.141c0-2.327,0.211-4.372-2.045-5.853V17.205h17.91V20.73z"/>
	<path fill="#13D6BE" d="M235.741,58.243c-3.525,2.961-6.98,4.301-11.564,4.301c-7.756,0-12.621-4.865-12.621-12.691
		c0-8.885,5.358-11.494,12.832-13.961l10.719-3.455v-1.552c0-2.186-0.564-4.371-2.891-4.371c-2.68,0-3.244,2.186-3.244,4.371v1.834
		h-15.583v-10.93c5.712-4.09,12.903-5.5,19.813-5.5c4.442,0,10.154,0.705,13.891,3.526c4.654,3.666,4.725,8.32,4.654,13.467v12.411
		c0,2.326-0.212,4.371,2.045,5.992v9.943h-18.051V58.243z M235.106,42.73c-2.962,1.198-6.91,1.903-6.91,5.006
		c0,1.41,0.916,3.031,2.396,2.75c1.41,0,2.962-0.494,4.514-1.623V42.73z"/>
	<path fill="#13D6BE" d="M274.005,17.205h5.499v10.153h-5.499v16.993c0,4.795-0.071,6.557,5.499,7.192v10.084l-8.319,0.635
		c-3.668,0.281-8.18-0.354-11-3.104c-3.032-3.031-2.82-7.191-2.82-11.07v-20.73h-2.045V17.205h2.045V8.532l16.641-4.725V17.205z"/>
	<path fill="#13D6BE" d="M302.493,45.833c0,2.256-0.211,4.512,2.115,5.852v9.943h-20.801v-9.943c2.186-1.34,2.045-3.312,2.045-5.57
		V33c0-2.257,0.211-4.513-2.045-5.853v-9.942h18.686V45.833z M284.513,7.404c0-4.795,4.936-6.77,9.025-6.77
		c4.16,0,8.955,2.257,8.955,7.052c0,4.653-4.725,6.839-8.814,6.839C289.308,14.525,284.513,12.41,284.513,7.404z"/>
	<path fill="#13D6BE" d="M347.136,44.704c0,4.935-0.141,10.507-4.16,13.96c-4.02,3.455-9.942,3.879-15.02,3.879
		c-4.582,0-11.07-0.352-14.947-2.961c-5.43-3.596-5.43-9.025-5.43-14.878V33.141c0-4.795,0.07-10.013,4.23-13.256
		c4.02-3.173,9.449-3.597,14.455-3.597c4.512,0,11.281,0.353,15.16,2.609c5.358,3.243,5.711,8.603,5.711,14.243V44.704z
		 M324.22,46.114c0,2.398-0.212,6.064,3.103,6.064c3.384,0,3.173-3.666,3.173-6.064V33.281c0-2.397,0.494-6.628-3.103-6.628
		s-3.173,4.16-3.173,6.628V46.114z"/>
	<path fill="#13D6BE" d="M368.088,19.955c4.513-3.032,8.461-3.808,11.987-3.667c3.455,0.142,6.486,1.27,8.179,2.962
		c3.032,2.891,3.384,6.135,3.384,9.942v16.64c0,2.186-0.211,4.654,1.975,5.852v9.943h-17.697c-0.988-4.514-0.918-9.238-0.918-13.82
		V34.833c0-0.282,0.213-2.327-0.492-3.949c-1.129-1.691-2.963-2.961-5.712-1.691v16.64c0,2.186-0.212,4.654,2.044,5.852v9.943
		h-20.729v-9.943c2.187-1.268,2.045-3.312,2.045-5.57V32.647c0-2.397,0.07-3.949-2.045-5.5v-9.942h17.98V19.955z"/>
</g>
<g>
	<path fill="#FFFFFF" d="M6.867,71.27h1.807l6.891,16.07h-1.759l-2.313-5.42H4.023l-2.361,5.42H0L6.867,71.27z M10.866,80.474
		l-3.084-7.372l-3.156,7.372H10.866z"/>
	<path fill="#FFFFFF" d="M17.488,71.27h2.168l9.011,13.348V71.27h1.614v16.07h-1.614l-9.565-14.143V87.34h-1.614V71.27z"/>
	<path fill="#FFFFFF" d="M45.503,71.27h1.807l6.891,16.07h-1.759l-2.313-5.42H42.66l-2.361,5.42h-1.662L45.503,71.27z
		 M49.502,80.474l-3.084-7.372l-3.156,7.372H49.502z"/>
	<path fill="#FFFFFF" d="M56.914,71.27v10.023c0,2.963,1.47,4.771,3.855,4.771s3.855-1.808,3.855-4.771V71.27h1.614v10.023
		c0,3.928-2.096,6.336-5.469,6.336c-3.373,0-5.469-2.408-5.469-6.336V71.27H56.914z"/>
	<path fill="#FFFFFF" d="M70.292,82.835c0.241,2.12,1.445,3.349,3.349,3.349c1.735,0,3.205-1.494,3.205-3.229
		c0-1.711-1.084-2.723-3.59-3.373c-1.663-0.41-2.361-0.746-3.012-1.397c-0.723-0.723-1.132-1.734-1.132-2.843
		c0-2.529,1.927-4.361,4.554-4.361c2.481,0,4.433,1.904,4.433,4.361h-1.687c-0.121-1.734-1.301-2.916-2.916-2.916
		c-1.566,0-2.771,1.254-2.771,2.867c0,1.471,0.771,2.169,3.156,2.844c1.903,0.529,2.265,0.674,2.987,1.277
		c0.988,0.843,1.59,2.144,1.59,3.469c0,2.627-2.192,4.746-4.891,4.746c-2.843,0-4.867-1.927-4.987-4.794H70.292z"/>
	<path fill="#FFFFFF" d="M83.189,72.715h-3.687V71.27h8.987v1.445h-3.686V87.34h-1.614V72.715z"/>
	<path fill="#FFFFFF" d="M90.473,71.27h4.096c1.639,0,2.891,0.169,3.662,0.458c1.952,0.796,3.156,2.603,3.156,4.747
		c0,2.674-1.976,4.697-4.771,4.866l4.53,5.999h-2l-5.47-7.275c2.434,0,2.939-0.049,3.71-0.338c1.494-0.529,2.385-1.807,2.385-3.373
		c0-1.205-0.699-2.434-1.734-3.035c-0.771-0.434-1.663-0.604-3.132-0.604h-2.819V87.34h-1.614V71.27z"/>
	<path fill="#FFFFFF" d="M109.664,71.27h1.807l6.891,16.07h-1.759l-2.313-5.42h-7.469l-2.361,5.42h-1.662L109.664,71.27z
		 M113.664,80.474l-3.084-7.372l-3.156,7.372H113.664z"/>
	<path fill="#FFFFFF" d="M120.286,71.27h1.614v14.625h6.65v1.445h-8.264V71.27z"/>
	<path fill="#FFFFFF" d="M130.604,71.27h1.614v16.07h-1.614V71.27z"/>
	<path fill="#FFFFFF" d="M140.964,71.27h1.807l6.891,16.07h-1.759l-2.313-5.42h-7.469l-2.361,5.42h-1.662L140.964,71.27z
		 M144.963,80.474l-3.084-7.372l-3.156,7.372H144.963z"/>
	<path fill="#FFFFFF" d="M151.585,71.27h2.168l9.011,13.348V71.27h1.614v16.07h-1.614l-9.565-14.143V87.34h-1.614V71.27z"/>
	<path fill="#FFFFFF" d="M189.262,83.125c-1.494,2.771-4.337,4.505-7.373,4.505c-4.674,0-8.433-3.686-8.433-8.239
		c0-4.747,3.662-8.409,8.457-8.409c3.012,0,6.264,1.977,7.276,4.409h-1.783c-1.229-1.831-3.349-2.964-5.59-2.964
		c-3.614,0-6.746,3.205-6.746,6.916c0,3.662,3.18,6.842,6.818,6.842c2.145,0,4.072-1.061,5.59-3.06H189.262z"/>
	<path fill="#FFFFFF" d="M207.631,79.39c0,4.481-3.88,8.239-8.505,8.239c-4.626,0-8.505-3.758-8.505-8.239
		c0-4.65,3.783-8.409,8.505-8.409S207.631,74.715,207.631,79.39z M192.235,79.39c0,3.687,3.156,6.794,6.891,6.794
		c3.734,0,6.891-3.107,6.891-6.794c0-3.854-3.084-6.964-6.891-6.964C195.319,72.426,192.235,75.536,192.235,79.39z"/>
	<path fill="#FFFFFF" d="M210.423,71.27h2.482l5.83,13.686l5.855-13.686h2.48v16.07h-1.613V73.03L219.41,87.34h-1.374l-5.998-14.311
		V87.34h-1.615V71.27z"/>
	<path fill="#FFFFFF" d="M230.833,71.27h1.613v16.07h-1.613V71.27z"/>
	<path fill="#FFFFFF" d="M251.063,83.125c-1.494,2.771-4.338,4.505-7.373,4.505c-4.674,0-8.434-3.686-8.434-8.239
		c0-4.747,3.662-8.409,8.457-8.409c3.012,0,6.265,1.977,7.276,4.409h-1.782c-1.229-1.831-3.35-2.964-5.59-2.964
		c-3.614,0-6.746,3.205-6.746,6.916c0,3.662,3.18,6.842,6.818,6.842c2.145,0,4.071-1.061,5.59-3.06H251.063z"/>
	<path fill="#FFFFFF" d="M265.2,71.27h1.807l6.891,16.07h-1.759l-2.313-5.42h-7.469l-2.361,5.42h-1.662L265.2,71.27z
		 M269.199,80.474l-3.084-7.372l-3.156,7.372H269.199z"/>
	<path fill="#FFFFFF" d="M275.821,71.27h2.168L287,84.618V71.27h1.614v16.07H287l-9.565-14.143V87.34h-1.613V71.27z"/>
	<path fill="#FFFFFF" d="M294.309,72.715h-3.687V71.27h8.986v1.445h-3.686V87.34h-1.614V72.715z"/>
	<path fill="#FFFFFF" d="M301.592,71.27h1.614v7.084h8.312V71.27h1.613v16.07h-1.613v-7.541h-8.312v7.541h-1.614V71.27z"/>
	<path fill="#FFFFFF" d="M332.899,79.39c0,4.481-3.879,8.239-8.505,8.239s-8.505-3.758-8.505-8.239c0-4.65,3.783-8.409,8.505-8.409
		C329.117,70.981,332.899,74.715,332.899,79.39z M317.504,79.39c0,3.687,3.156,6.794,6.891,6.794c3.735,0,6.892-3.107,6.892-6.794
		c0-3.854-3.084-6.964-6.892-6.964C320.588,72.426,317.504,75.536,317.504,79.39z"/>
	<path fill="#FFFFFF" d="M335.692,71.27h1.614v14.625h6.649v1.445h-8.264V71.27z"/>
	<path fill="#FFFFFF" d="M361.198,79.39c0,4.481-3.88,8.239-8.506,8.239s-8.505-3.758-8.505-8.239c0-4.65,3.782-8.409,8.505-8.409
		S361.198,74.715,361.198,79.39z M345.802,79.39c0,3.687,3.156,6.794,6.891,6.794s6.891-3.107,6.891-6.794
		c0-3.854-3.084-6.964-6.891-6.964S345.802,75.536,345.802,79.39z"/>
	<path fill="#FFFFFF" d="M380.192,79.944c-0.361,4.361-4.047,7.686-8.504,7.686c-4.675,0-8.626-3.807-8.626-8.264
		c0-4.65,3.831-8.385,8.577-8.385c2.023,0,3.855,0.627,5.396,1.855c1.157,0.916,1.832,1.783,2.169,2.723h-1.807
		c-1.061-1.855-3.349-3.133-5.638-3.133c-3.951,0-7.084,3.084-7.084,6.964c0,3.71,3.205,6.794,7.084,6.794
		c2.963,0,5.782-2.072,6.48-4.795h-8.963v-1.445H380.192z"/>
	<path fill="#FFFFFF" d="M385.714,81.967l-5.59-10.697h1.783l4.602,9.012l4.698-9.012h1.759l-5.639,10.697v5.373h-1.613V81.967z"/>
</g>
</svg>
