<?xml version="1.0" encoding="utf-8"?>
<!-- Generator: Adobe Illustrator 15.0.0, SVG Export Plug-In . SVG Version: 6.00 Build 0)  -->
<!DOCTYPE svg PUBLIC "-//W3C//DTD SVG 1.1//EN" "http://www.w3.org/Graphics/SVG/1.1/DTD/svg11.dtd">
<svg version="1.1" id="Layer_1" xmlns="http://www.w3.org/2000/svg" xmlns:xlink="http://www.w3.org/1999/xlink" x="0px" y="0px"
	 width="407.247px" height="76.811px" viewBox="0 0 407.247 76.811" enable-background="new 0 0 407.247 76.811"
	 xml:space="preserve">
<g>
	<path fill="#13D6BE" d="M52.002,29.216H33.881v-1.339c0-2.68,0.564-7.827-3.596-7.827c-3.525,0-3.808,3.314-3.808,5.923v26.865
		c0,0.635,0.282,3.949,3.808,3.949c4.16,0,3.596-5.148,3.596-7.898v-2.68h-3.244V34.434h21.365v28.839
		c-5.923,5.359-14.878,6.557-22.563,6.557c-5.429,0-11.634-0.422-15.936-4.018c-5.57-4.725-5.852-10.225-5.852-16.854V25.973
		c0-5.358,0.634-10.576,5.006-14.243c4.372-3.737,10.365-4.725,15.936-4.725c8.25,0,16.782,1.904,23.41,6.981V29.216z"/>
	<path fill="#13D6BE" d="M56.132,40.357c-0.282-12.127,3.808-16.993,19.391-17.064c16.358-0.07,20.377,5.359,20.096,16.218v10.506
		H72.772v4.09c-0.07,2.186,0.211,5.076,3.103,5.076s3.103-2.609,3.103-4.865v-1.621h16.641v11.141
		c-3.667,3.172-10.506,5.217-17.346,5.711c-6.769,0.494-13.609-0.635-17.275-3.385c-4.654-3.455-4.865-8.391-4.865-13.75V40.357z
		 M79.259,38.171c0-1.763-0.282-4.513-3.243-4.513s-3.244,2.75-3.244,4.513v1.692h6.487V38.171z"/>
	<path fill="#13D6BE" d="M117.106,26.96c4.513-3.032,8.461-3.808,11.987-3.667c3.455,0.142,6.487,1.27,8.179,2.962
		c3.032,2.891,3.384,6.135,3.384,9.942v16.64c0,2.186-0.211,4.654,1.975,5.852v9.943h-17.698c-0.987-4.514-0.917-9.238-0.917-13.82
		V41.837c0-0.281,0.212-2.327-0.493-3.949c-1.128-1.691-2.961-2.961-5.711-1.691v16.64c0,2.186-0.212,4.654,2.044,5.852v9.943
		h-20.73v-9.943c2.186-1.268,2.045-3.312,2.045-5.57V39.652c0-2.397,0.07-3.949-2.045-5.5V24.21h17.98V26.96z"/>
	<path fill="#13D6BE" d="M145.999,40.357c-0.282-12.127,3.808-16.993,19.391-17.064c16.358-0.07,20.377,5.359,20.096,16.218v10.506
		H162.64v4.09c-0.07,2.186,0.211,5.076,3.103,5.076s3.103-2.609,3.103-4.865v-1.621h16.641v11.141
		c-3.667,3.172-10.506,5.217-17.346,5.711c-6.769,0.494-13.609-0.635-17.275-3.385c-4.654-3.455-4.865-8.391-4.865-13.75V40.357z
		 M169.126,38.171c0-1.763-0.282-4.513-3.243-4.513s-3.244,2.75-3.244,4.513v1.692h6.487V38.171z"/>
	<path fill="#13D6BE" d="M207.002,27.735c1.762-3.032,3.596-4.513,7.191-4.513c0.635,0,1.34,0.07,1.975,0.212v15.159h-1.34
		c-5.781,0-7.051,3.244-7.051,8.462v4.301c0,1.41,0,3.385,0.281,4.795c0.283,1.48,0.705,1.832,2.115,2.537v9.943h-21.082V58.548
		c2.256-1.48,2.045-3.525,2.045-5.852V40.146c0-2.328,0.211-4.373-2.045-5.853V24.21h17.91V27.735z"/>
	<path fill="#13D6BE" d="M242.493,65.248c-3.525,2.961-6.98,4.301-11.564,4.301c-7.756,0-12.621-4.865-12.621-12.691
		c0-8.885,5.358-11.494,12.832-13.961l10.719-3.456v-1.552c0-2.186-0.564-4.371-2.891-4.371c-2.68,0-3.244,2.186-3.244,4.371v1.834
		H220.14v-10.93c5.712-4.09,12.903-5.5,19.813-5.5c4.442,0,10.154,0.705,13.891,3.526c4.654,3.666,4.725,8.32,4.654,13.467v12.41
		c0,2.326-0.212,4.371,2.045,5.992v9.943h-18.051V65.248z M241.858,49.736c-2.962,1.197-6.91,1.902-6.91,5.006
		c0,1.41,0.916,3.031,2.396,2.75c1.41,0,2.962-0.494,4.514-1.623V49.736z"/>
	<path fill="#13D6BE" d="M280.756,24.21h5.499v10.153h-5.499v16.994c0,4.795-0.071,6.557,5.499,7.191v10.084l-8.319,0.635
		c-3.668,0.281-8.18-0.354-11-3.104c-3.032-3.031-2.82-7.191-2.82-11.07v-20.73h-2.045V24.21h2.045v-8.673l16.641-4.725V24.21z"/>
	<path fill="#13D6BE" d="M309.245,52.837c0,2.256-0.211,4.512,2.115,5.852v9.943h-20.801v-9.943c2.186-1.34,2.045-3.312,2.045-5.57
		V40.005c0-2.257,0.211-4.513-2.045-5.853V24.21h18.686V52.837z M291.264,14.409c0-4.795,4.936-6.77,9.025-6.77
		c4.16,0,8.955,2.257,8.955,7.052c0,4.653-4.725,6.839-8.814,6.839C296.059,21.53,291.264,19.415,291.264,14.409z"/>
	<path fill="#13D6BE" d="M353.887,51.708c0,4.936-0.141,10.508-4.16,13.961c-4.02,3.455-9.942,3.879-15.02,3.879
		c-4.582,0-11.07-0.352-14.947-2.961c-5.43-3.596-5.43-9.025-5.43-14.879V40.146c0-4.795,0.07-10.013,4.23-13.256
		c4.02-3.173,9.449-3.597,14.455-3.597c4.512,0,11.281,0.353,15.16,2.609c5.358,3.243,5.711,8.603,5.711,14.244V51.708z
		 M330.971,53.119c0,2.398-0.212,6.064,3.103,6.064c3.384,0,3.173-3.666,3.173-6.064V40.287c0-2.398,0.494-6.628-3.103-6.628
		s-3.173,4.16-3.173,6.628V53.119z"/>
	<path fill="#13D6BE" d="M374.839,26.96c4.513-3.032,8.461-3.808,11.987-3.667c3.455,0.142,6.486,1.27,8.179,2.962
		c3.032,2.891,3.384,6.135,3.384,9.942v16.64c0,2.186-0.211,4.654,1.975,5.852v9.943h-17.697c-0.988-4.514-0.918-9.238-0.918-13.82
		V41.837c0-0.281,0.213-2.327-0.492-3.949c-1.129-1.691-2.963-2.961-5.712-1.691v16.64c0,2.186-0.212,4.654,2.044,5.852v9.943
		h-20.729v-9.943c2.187-1.268,2.045-3.312,2.045-5.57V39.652c0-2.397,0.07-3.949-2.045-5.5V24.21h17.98V26.96z"/>
</g>
</svg>
